<svg width="32" height="32" viewBox="0 0 32 32" fill="none" xmlns="http://www.w3.org/2000/svg">
<g clip-path="url(#clip0_19489_20661)">
<path d="M29.32 10.025C28.91 9.61003 28.37 9.38503 27.79 9.38503H26.11C25.845 9.38503 25.58 9.31503 25.345 9.18003L19.995 6.08503C19.085 5.56003 18.055 5.28003 17.01 5.28003H15.54C14.27 5.28003 13.085 5.86003 12.295 6.87003L11.885 7.40003C11.005 7.62003 7.40504 8.51503 5.76504 8.86003C5.58004 8.87003 4.95504 8.88003 4.53004 8.89003C4.12004 8.89003 3.73504 8.90003 3.59004 8.91003C2.72004 8.95003 2.04004 9.67003 2.04004 10.555V18.06C2.04004 18.595 2.42004 19.07 2.94504 19.19L5.42504 19.745C5.42504 19.745 5.44504 19.755 5.45504 19.765C5.95504 20.29 9.65504 24.17 11.115 25.625C11.72 26.29 12.605 26.725 13.505 26.725C14.115 26.725 14.735 26.52 15.27 26.045C15.285 26.035 15.3 26.02 15.31 26.005C15.5 25.815 15.545 25.77 15.59 25.7C15.75 25.48 15.865 25.255 15.95 25.04C16.275 25.135 16.625 25.165 16.975 25.135C17.685 25.07 18.335 24.73 18.75 24.22C18.965 23.96 19.13 23.675 19.24 23.38C19.61 23.51 20.01 23.565 20.415 23.52C21.135 23.45 21.78 23.1 22.24 22.53C22.45 22.27 22.605 21.98 22.7 21.675C23.005 21.745 23.315 21.77 23.635 21.74C24.375 21.665 25.035 21.305 25.505 20.725C25.88 20.255 26.08 19.695 26.11 19.125C26.24 19.13 26.385 19.13 26.535 19.13C27.205 19.13 27.96 19.12 28.08 19.115C29.06 19.115 29.88 18.31 29.9 17.32C29.93 15.935 29.95 13.135 29.96 11.59C29.96 11 29.735 10.44 29.32 10.025Z" fill="#0B827C"/>
<path d="M23.945 19.47C23.815 19.63 23.635 19.73 23.435 19.75C23.235 19.77 23.04 19.71 22.885 19.58L18.65 16.015C18.145 15.59 17.555 15.72 17.23 16.07C16.905 16.42 16.82 17.02 17.285 17.49C17.355 17.56 17.47 17.67 17.545 17.73L20.58 20.26C20.875 20.51 20.925 20.975 20.675 21.285C20.56 21.425 20.4 21.515 20.215 21.53C20.035 21.55 19.855 21.495 19.715 21.38L16.75 18.905C16.16 18.415 15.55 18.7 15.305 18.995C15.055 19.29 14.88 19.94 15.46 20.435L17.255 21.955C17.475 22.135 17.52 22.565 17.2 22.95C17.115 23.055 16.965 23.125 16.79 23.14C16.605 23.16 16.415 23.11 16.3 23.01C16.015 22.765 15.28 22.05 15.025 21.79C14.48 21.255 13.845 21.49 13.575 21.76C13.3 22.035 13.07 22.67 13.61 23.21L13.82 23.42C13.855 23.455 13.905 23.505 13.92 23.53C14.04 23.68 14.27 24.065 13.99 24.495L13.92 24.565C13.475 24.935 12.845 24.53 12.615 24.3C12.6 24.285 12.585 24.265 12.565 24.245C12.545 24.22 12.52 24.2 12.495 24.18C10.95 22.635 6.89004 18.375 6.85004 18.33C6.82504 18.305 6.80004 18.28 6.77004 18.255C6.54504 18.06 6.28004 17.92 5.99504 17.83C5.97004 17.82 5.94504 17.815 5.92004 17.81L4.04004 17.385V10.895C4.19504 10.895 4.37504 10.895 4.56504 10.895C5.91004 10.87 5.98504 10.865 6.11504 10.835C7.07504 10.635 8.70504 10.245 10.085 9.90997C9.90504 10.3 9.82004 10.685 9.82004 11.06C9.82004 11.205 9.83504 11.35 9.86004 11.495C10.02 12.305 10.55 12.975 11.36 13.37C12.27 13.82 13.4 13.84 14.235 13.425C14.75 13.165 15.295 12.555 15.94 11.77L23.83 18.345C24.165 18.625 24.215 19.14 23.945 19.475V19.47Z" fill="#04E1CB"/>
<path d="M27.9599 11.575C27.9499 13.06 27.9299 15.705 27.9049 17.12C27.2499 17.13 26.3449 17.135 25.9099 17.125L17.9349 9.63003C17.9349 9.63003 17.9049 9.60503 17.8899 9.59503C17.4449 9.22503 16.6749 9.07003 15.9999 9.20503C15.6199 9.27503 15.2749 9.44003 15.0349 9.70503C15.0249 9.71503 15.0149 9.72503 15.0049 9.73503C14.9049 9.85003 14.7799 10.01 14.6299 10.195C14.5699 10.27 14.4949 10.365 14.3999 10.48C14.0599 10.9 13.5549 11.505 13.3399 11.63C13.0599 11.77 12.5899 11.745 12.2449 11.575C12.0799 11.49 11.8699 11.345 11.8249 11.11C11.7949 10.96 11.8799 10.65 12.2099 10.23L12.7799 9.50003L13.4249 8.67503L13.8699 8.10503C13.9349 8.02003 14.0099 7.94003 14.0899 7.87003C14.4799 7.49003 14.9949 7.28003 15.5399 7.28003H17.0099C17.7049 7.28003 18.3899 7.46503 18.9899 7.81503L24.3449 10.91C24.8849 11.22 25.4949 11.385 26.1099 11.385H27.7899C27.8299 11.385 27.8699 11.4 27.8999 11.435C27.9299 11.46 27.9599 11.505 27.9599 11.575Z" fill="white"/>
</g>
<defs>
<clipPath id="clip0_19489_20661">
<rect width="32" height="32" fill="white"/>
</clipPath>
</defs>
</svg>
