<svg preserveAspectRatio="none" width="100%" height="100%" overflow="visible" style="display: block;" viewBox="0 0 12 12" fill="none" xmlns="http://www.w3.org/2000/svg">
<path id="Union" d="M6 0C6.44176 0 6.7997 0.358067 6.7998 0.799805V5.2002H11.2002C11.6418 5.20041 12 5.5583 12 6C12 6.4417 11.6418 6.79959 11.2002 6.7998H6.7998V11.2002C6.79959 11.6418 6.4417 12 6 12C5.5583 12 5.20041 11.6418 5.2002 11.2002V6.7998H0.799805C0.358067 6.7997 0 6.44176 0 6C0 5.55824 0.358067 5.2003 0.799805 5.2002H5.2002V0.799805C5.2003 0.358067 5.55824 0 6 0Z" fill="var(--fill-0, #454447)"/>
</svg>
