<svg preserveAspectRatio="none" width="100%" height="100%" overflow="visible" style="display: block;" viewBox="0 0 15.3001 15.3001" fill="none" xmlns="http://www.w3.org/2000/svg">
<path id="Union" d="M6.75 0C10.4778 0.000105659 13.4999 3.02223 13.5 6.75C13.5 8.3706 12.9276 9.857 11.9756 11.0205L15.1025 14.1475C15.3659 14.4111 15.3661 14.839 15.1025 15.1025C14.839 15.3661 14.4111 15.3659 14.1475 15.1025L11.0205 11.9756C9.857 12.9276 8.3706 13.5 6.75 13.5C3.02223 13.4999 0.000105657 10.4778 0 6.75C0.000105522 3.02223 3.02223 0.000105525 6.75 0ZM6.75 1.34961C3.76782 1.34971 1.34971 3.76782 1.34961 6.75C1.34972 9.73218 3.76782 12.1493 6.75 12.1494C9.73218 12.1493 12.1493 9.73218 12.1494 6.75C12.1493 3.76782 9.73218 1.34972 6.75 1.34961Z" fill="var(--fill-0, white)"/>
</svg>
