<svg preserveAspectRatio="none" width="100%" height="100%" overflow="visible" style="display: block;" viewBox="0 0 9.22741 9.22748" fill="none" xmlns="http://www.w3.org/2000/svg">
<path id="Union" d="M5.9835 0.448066C6.58102 -0.149315 7.5501 -0.149396 8.14757 0.448066L8.7794 1.08088C9.37667 1.6784 9.37683 2.64752 8.7794 3.24494L3.73839 8.28596C3.68314 8.34116 3.61449 8.38154 3.53917 8.40217L0.568464 9.21174C0.412827 9.25412 0.246078 9.2095 0.131941 9.09553C0.0180227 8.9814 -0.0266241 8.81461 0.0157299 8.659L0.826277 5.68928L0.844831 5.63361C0.867349 5.57989 0.901041 5.53054 0.942488 5.48908L5.9835 0.448066ZM1.66319 6.03986L1.0919 8.13557L3.18468 7.56525L6.96788 3.78205L5.44444 2.25861L1.66319 6.03986ZM7.51085 1.08478C7.26486 0.838795 6.86626 0.838875 6.62022 1.08478L6.08116 1.62189L7.6046 3.14533L8.14366 2.60822C8.3894 2.36235 8.38914 1.96363 8.14366 1.7176L7.51085 1.08478Z" fill="var(--fill-0, #F4DAFF)" fill-opacity="0.8"/>
</svg>
