<svg preserveAspectRatio="none" width="100%" height="100%" overflow="visible" style="display: block;" viewBox="0 0 14.625 14.1748" fill="none" xmlns="http://www.w3.org/2000/svg">
<path id="Union" d="M10.3506 12.8252C10.7231 12.8255 11.0254 13.1274 11.0254 13.5C11.0254 13.8726 10.7231 14.1745 10.3506 14.1748H0.900391C0.527598 14.1748 0.225586 13.8728 0.225586 13.5C0.225586 13.1272 0.527598 12.8252 0.900391 12.8252H10.3506ZM13.7246 8.5498C14.0973 8.5498 14.3992 8.852 14.3994 9.22461C14.3994 9.5974 14.0974 9.89941 13.7246 9.89941H0.674805C0.302102 9.89931 0 9.59734 0 9.22461C0.00021048 8.85206 0.302232 8.54991 0.674805 8.5498H13.7246ZM13.9502 4.27539C14.3228 4.2756 14.625 4.57753 14.625 4.9502C14.6249 5.32277 14.3227 5.62479 13.9502 5.625H0.900391C0.527664 5.625 0.225692 5.3229 0.225586 4.9502C0.225586 4.5774 0.527598 4.27539 0.900391 4.27539H13.9502ZM13.9502 0C14.3227 0.000210801 14.6249 0.302232 14.625 0.674805C14.625 1.04747 14.3228 1.3494 13.9502 1.34961H0.900391C0.527598 1.34961 0.225586 1.0476 0.225586 0.674805C0.225691 0.302102 0.527664 0 0.900391 0H13.9502Z" fill="var(--fill-0, #F4DAFF)" fill-opacity="0.8"/>
</svg>
