<svg preserveAspectRatio="none" width="100%" height="100%" overflow="visible" style="display: block;" viewBox="0 0 16 3.5" fill="none" xmlns="http://www.w3.org/2000/svg">
<path id="Union" d="M1.75 0C2.7165 8.4494e-08 3.5 0.783502 3.5 1.75C3.5 2.7165 2.7165 3.5 1.75 3.5C0.783502 3.5 -2.00674e-08 2.7165 0 1.75C8.4494e-08 0.783502 0.783502 -2.00673e-08 1.75 0ZM8 0C8.9665 8.4494e-08 9.75 0.783502 9.75 1.75C9.75 2.7165 8.9665 3.5 8 3.5C7.0335 3.5 6.25 2.7165 6.25 1.75C6.25 0.783502 7.0335 -8.44939e-08 8 0ZM14.25 0C15.2165 8.4494e-08 16 0.783502 16 1.75C16 2.7165 15.2165 3.5 14.25 3.5C13.2835 3.5 12.5 2.7165 12.5 1.75C12.5 0.783502 13.2835 -8.44939e-08 14.25 0Z" fill="var(--fill-0, white)"/>
</svg>
