<svg preserveAspectRatio="none" width="100%" height="100%" overflow="visible" style="display: block;" viewBox="0 0 17.0003 16.982" fill="none" xmlns="http://www.w3.org/2000/svg">
<path id="Union" d="M7.40927 0.333521C8.06836 -0.111198 8.9318 -0.11115 9.59091 0.333521L16.67 5.11087C17.013 5.34258 17.1036 5.80866 16.8722 6.15188C16.6403 6.49483 16.1734 6.58562 15.8302 6.35403L15.5001 6.1304V13.1421C15.5001 15.2132 13.8211 16.982 11.7501 16.982H5.25009C3.17924 16.9817 1.50011 15.213 1.50009 13.1421V6.1304L1.17001 6.35403C0.826739 6.5853 0.359633 6.495 0.128021 6.15188C-0.103279 5.80882 -0.0124379 5.34269 0.330169 5.11087L7.40927 0.333521ZM10.5001 8.48196C9.94803 8.48219 9.50013 8.92985 9.50009 9.48196V10.482C9.50009 11.0341 9.948 11.4817 10.5001 11.482H11.5001C12.0524 11.482 12.5001 11.0342 12.5001 10.482V9.48196C12.5 8.92971 12.0523 8.48196 11.5001 8.48196H10.5001Z" fill="var(--fill-0, white)"/>
</svg>
