<svg preserveAspectRatio="none" width="100%" height="100%" overflow="visible" style="display: block;" viewBox="0 0 15.9004 12.75" fill="none" xmlns="http://www.w3.org/2000/svg">
<path id="Union" d="M9.75 0C10.9095 0.00021107 11.8494 0.940121 11.8496 2.09961V3.13477L14.0264 1.88184L14.1846 1.80371C14.9854 1.47832 15.9004 2.0635 15.9004 2.96484V9.78516C15.9004 10.7466 14.8597 11.3477 14.0264 10.8682L11.8496 9.61426V10.6504C11.8494 11.8099 10.9095 12.7498 9.75 12.75H2.09961C0.940121 12.7498 0.000211302 11.8099 0 10.6504V2.09961C0.000211045 0.940121 0.940121 0.000211006 2.09961 0H9.75ZM2.09961 1.5C1.76855 1.50021 1.50021 1.76855 1.5 2.09961V10.6504C1.50021 10.9815 1.76855 11.2498 2.09961 11.25H9.75C10.0811 11.2498 10.3494 10.9815 10.3496 10.6504V8.31836C10.3496 8.05058 10.4928 7.80298 10.7246 7.66895C10.9564 7.53508 11.2426 7.53441 11.4746 7.66797L14.4004 9.35254V3.39648L11.4746 5.08203C11.2426 5.21559 10.9564 5.21492 10.7246 5.08105C10.4928 4.94702 10.3496 4.69942 10.3496 4.43164V2.09961C10.3494 1.76855 10.0811 1.50021 9.75 1.5H2.09961Z" fill="var(--fill-0, #454447)"/>
</svg>
