<svg preserveAspectRatio="none" width="100%" height="100%" overflow="visible" style="display: block;" viewBox="0 0 9.02539 10.3755" fill="none" xmlns="http://www.w3.org/2000/svg">
<path id="Union" d="M4.92871 6.17285C5.02472 6.11351 5.14514 6.1087 5.24609 6.15918L8.8457 7.95898C8.95594 8.01418 9.02539 8.12671 9.02539 8.25C9.02539 8.37329 8.95594 8.48582 8.8457 8.54102L5.24609 10.3408C5.14514 10.3913 5.02472 10.3865 4.92871 10.3271C4.8327 10.2678 4.77441 10.1627 4.77441 10.0498V8.9248C4.77451 8.75736 4.9017 8.61695 5.06836 8.60059L6.19238 8.49023C6.31608 8.47809 6.41113 8.37429 6.41113 8.25C6.41113 8.12571 6.31608 8.02191 6.19238 8.00977L5.06836 7.89941C4.9017 7.88305 4.77451 7.74264 4.77441 7.5752V6.4502C4.77441 6.33733 4.8327 6.23219 4.92871 6.17285ZM4.5 0C6.98528 0 9 2.01472 9 4.5C9 5.08799 8.88655 5.65092 8.68066 6.16699C8.58847 6.3975 8.32733 6.50983 8.09668 6.41797C7.86584 6.32588 7.75263 6.06384 7.84473 5.83301C8.00898 5.42128 8.09961 4.97186 8.09961 4.5C8.09961 2.51178 6.48823 0.900391 4.5 0.900391C2.51178 0.900391 0.900391 2.51178 0.900391 4.5C0.900391 6.11618 1.96577 7.48474 3.43359 7.93945C3.67063 8.01312 3.80276 8.26479 3.72949 8.50195C3.65595 8.73933 3.40437 8.87233 3.16699 8.79883C1.33308 8.2307 0 6.52174 0 4.5C9.66384e-08 2.01472 2.01472 9.66399e-08 4.5 0ZM4.5 1.96387C4.74853 1.96387 4.9502 2.16553 4.9502 2.41406V4.2959H6.34082C6.58924 4.2959 6.79084 4.49674 6.79102 4.74512C6.79102 4.99365 6.58935 5.19531 6.34082 5.19531H4.0498V2.41406C4.0498 2.16553 4.25147 1.96387 4.5 1.96387Z" fill="var(--fill-0, #F4DAFF)" fill-opacity="0.8"/>
</svg>
