<svg preserveAspectRatio="none" width="100%" height="100%" overflow="visible" style="display: block;" viewBox="0 0 15 15" fill="none" xmlns="http://www.w3.org/2000/svg">
<path id="Union" d="M7.5 0C7.91421 0 8.25 0.335786 8.25 0.75V6.75H14.25C14.6642 6.75 15 7.08579 15 7.5C15 7.91421 14.6642 8.25 14.25 8.25H8.25V14.25C8.25 14.6642 7.91421 15 7.5 15C7.08579 15 6.75 14.6642 6.75 14.25V8.25H0.75C0.335786 8.25 0 7.91421 0 7.5C0 7.08579 0.335786 6.75 0.75 6.75H6.75V0.75C6.75 0.335786 7.08579 0 7.5 0Z" fill="var(--fill-0, #F4DAFF)" fill-opacity="0.8"/>
</svg>
