<svg preserveAspectRatio="none" width="100%" height="100%" overflow="visible" style="display: block;" viewBox="0 0 17.0001 17" fill="none" xmlns="http://www.w3.org/2000/svg">
<path id="Union" d="M3.375 10.25C5.23896 10.25 6.75 11.7611 6.75 13.625C6.75 15.489 5.23896 17 3.375 17C1.51104 17 0 15.489 0 13.625C0 11.7611 1.51104 10.25 3.375 10.25ZM12.875 10.25C14.739 10.25 16.25 11.7611 16.25 13.625C16.25 15.489 14.739 17 12.875 17C11.011 17 9.5 15.489 9.5 13.625C9.5 11.7611 11.011 10.25 12.875 10.25ZM3.375 11.75C2.33947 11.75 1.5 12.5895 1.5 13.625C1.5 14.6606 2.33947 15.5 3.375 15.5C4.41053 15.5 5.25 14.6606 5.25 13.625C5.25 12.5895 4.41053 11.75 3.375 11.75ZM12.875 11.75C11.8395 11.75 11 12.5895 11 13.625C11 14.6606 11.8395 15.5 12.875 15.5C13.9105 15.5 14.75 14.6606 14.75 13.625C14.75 12.5895 13.9105 11.75 12.875 11.75ZM12.4521 0.185573C12.5759 -0.0618577 12.93 -0.0618577 13.0479 0.185573L13.9082 1.90042C14.1675 2.41269 14.5802 2.83659 15.0986 3.08987L16.8145 3.95022L16.8955 4.00589C17.0582 4.15794 17.031 4.44173 16.8145 4.54495L16.417 4.74319L16.665 4.24807V4.2471L16.415 4.74417L15.0986 5.4053C14.5861 5.66446 14.1616 6.0766 13.9082 6.59475L13.0479 8.3096C12.9241 8.55703 12.57 8.55703 12.4521 8.3096L11.5918 6.59475C11.3649 6.1465 11.0207 5.76567 10.5908 5.50784L10.4014 5.4053L8.68555 4.54495C8.46896 4.43658 8.44177 4.15211 8.60449 4.00393L8.68555 3.95022L10.4014 3.08987C10.8501 2.86297 11.2313 2.5188 11.4893 2.08889L11.5918 1.90042L12.4521 0.185573ZM3.375 1.00003C5.23896 1.00003 6.75 2.51107 6.75 4.37503C6.75 6.23899 5.23896 7.75003 3.375 7.75003C1.51104 7.75003 0 6.23899 0 4.37503C0 2.51107 1.51104 1.00003 3.375 1.00003ZM3.375 2.50003C2.33947 2.50003 1.5 3.33949 1.5 4.37503C1.5 5.41056 2.33947 6.25003 3.375 6.25003C4.41053 6.25003 5.25 5.41056 5.25 4.37503C5.25 3.33949 4.41053 2.50003 3.375 2.50003ZM12.751 2.89651C12.4072 3.45579 11.9387 3.91222 11.3994 4.24612C11.9584 4.58977 12.4142 5.0587 12.748 5.59768C13.0918 5.03862 13.5606 4.5819 14.0996 4.24807C13.5408 3.90424 13.0847 3.43561 12.751 2.89651Z" fill="var(--fill-0, white)"/>
</svg>
