<svg preserveAspectRatio="none" width="100%" height="100%" overflow="visible" style="display: block;" viewBox="0 0 15.2998 15.2998" fill="none" xmlns="http://www.w3.org/2000/svg">
<path id="Union" d="M7.64941 0C11.8742 0 15.2995 3.42471 15.2998 7.64941C15.2998 8.89682 14.9966 10.0745 14.4658 11.1162L15.2803 14.4648C15.336 14.6937 15.2691 14.936 15.1025 15.1025C14.936 15.2691 14.6937 15.336 14.4648 15.2803L11.1162 14.4658C10.0745 14.9966 8.89682 15.2998 7.64941 15.2998C3.42471 15.2995 0 11.8742 0 7.64941C0.00031655 3.4249 3.4249 0.000316549 7.64941 0ZM7.64941 1.34961C4.17048 1.34993 1.34993 4.17048 1.34961 7.64941C1.34961 11.1286 4.17029 13.9499 7.64941 13.9502C8.75923 13.9502 9.80088 13.6635 10.7051 13.1611L10.8203 13.1104C10.9395 13.0708 11.0687 13.0647 11.1924 13.0947L13.7061 13.7061L13.0947 11.1924C13.0547 11.0276 13.0788 10.8534 13.1611 10.7051C13.6635 9.80088 13.9502 8.75923 13.9502 7.64941C13.9499 4.17029 11.1286 1.34961 7.64941 1.34961ZM8.77441 8.5498C9.14708 8.5498 9.44901 8.852 9.44922 9.22461C9.44922 9.5974 9.14721 9.89941 8.77441 9.89941H4.72461C4.352 9.8992 4.0498 9.59727 4.0498 9.22461C4.05002 8.85213 4.35213 8.55002 4.72461 8.5498H8.77441ZM10.5742 5.40039C10.947 5.40039 11.25 5.7024 11.25 6.0752C11.2499 6.4479 10.9469 6.75 10.5742 6.75H4.72461C4.35206 6.74979 4.04991 6.44777 4.0498 6.0752C4.0498 5.70253 4.352 5.4006 4.72461 5.40039H10.5742Z" fill="var(--fill-0, #F4DAFF)" fill-opacity="0.8"/>
</svg>
