<svg preserveAspectRatio="none" width="100%" height="100%" overflow="visible" style="display: block;" viewBox="0 0 14 11.9998" fill="none" xmlns="http://www.w3.org/2000/svg">
<path id="Union" d="M5.73242 0.20695C6.03207 -0.0786894 6.50708 -0.0671583 6.79297 0.23234C7.07861 0.531985 7.06708 1.007 6.76758 1.29289L2.62207 5.24992H13.25C13.6642 5.24992 14 5.58571 14 5.99992C14 6.41413 13.6642 6.74992 13.25 6.74992H2.62207L6.76758 10.7069C7.06708 10.9928 7.07861 11.4679 6.79297 11.7675C6.50708 12.067 6.03207 12.0785 5.73242 11.7929L0.232422 6.54289C0.0841616 6.40137 0 6.20488 0 5.99992C6.19161e-07 5.79496 0.0841618 5.59847 0.232422 5.45695L5.73242 0.20695Z" fill="var(--fill-0, white)"/>
</svg>
