<svg preserveAspectRatio="none" width="100%" height="100%" overflow="visible" style="display: block;" viewBox="0 0 13.9004 13.9004" fill="none" xmlns="http://www.w3.org/2000/svg">
<path id="Union" d="M10.75 0C12.4896 5.15393e-07 13.9003 1.41078 13.9004 3.15039V7.57227C13.9004 8.30161 13.6105 9.00185 13.0947 9.51758L9.51758 13.0947C9.00185 13.6105 8.30161 13.9004 7.57227 13.9004H3.15039C1.41078 13.9003 5.15385e-07 12.4896 0 10.75V3.15039C0.000105575 1.41085 1.41085 0.000105576 3.15039 0H10.75ZM3.15039 1.5C2.23928 1.50011 1.50011 2.23928 1.5 3.15039V10.75C1.5 11.6612 2.23921 12.4003 3.15039 12.4004H7.40039V8.90039C7.40039 8.07196 8.07196 7.40039 8.90039 7.40039H12.4004V3.15039C12.4003 2.23921 11.6612 1.5 10.75 1.5H3.15039ZM8.90039 11.5908L11.5908 8.90039H8.90039V11.5908ZM5.40039 5.4502C5.81442 5.45041 6.15039 5.78611 6.15039 6.2002C6.15039 6.61428 5.81442 6.94998 5.40039 6.9502H4.10059C3.68637 6.9502 3.35059 6.61441 3.35059 6.2002C3.35059 5.78598 3.68637 5.4502 4.10059 5.4502H5.40039ZM9.80078 3.0498C10.2146 3.05012 10.5506 3.38597 10.5508 3.7998C10.5508 4.21382 10.2147 4.54949 9.80078 4.5498H4.10059C3.68637 4.5498 3.35059 4.21402 3.35059 3.7998C3.3508 3.38577 3.6865 3.0498 4.10059 3.0498H9.80078Z" fill="var(--fill-0, #454447)"/>
</svg>
