<svg preserveAspectRatio="none" width="100%" height="100%" overflow="visible" style="display: block;" viewBox="0 0 14 9.5" fill="none" xmlns="http://www.w3.org/2000/svg">
<path id="Union" d="M9.25 8C9.66421 8 10 8.33579 10 8.75C10 9.16421 9.66421 9.5 9.25 9.5H4.75C4.33579 9.5 4 9.16421 4 8.75C4 8.33579 4.33579 8 4.75 8H9.25ZM11.25 4C11.6642 4 12 4.33579 12 4.75C12 5.16421 11.6642 5.5 11.25 5.5H2.75C2.33579 5.5 2 5.16421 2 4.75C2 4.33579 2.33579 4 2.75 4H11.25ZM13.25 0C13.6642 0 14 0.335786 14 0.75C14 1.16421 13.6642 1.5 13.25 1.5H0.75C0.335786 1.5 0 1.16421 0 0.75C0 0.335786 0.335786 0 0.75 0H13.25Z" fill="var(--fill-0, white)"/>
</svg>
