<svg preserveAspectRatio="none" width="100%" height="100%" overflow="visible" style="display: block;" viewBox="0 0 14.5508 14.5502" fill="none" xmlns="http://www.w3.org/2000/svg">
<path id="Union" d="M9.91113 0.623213C9.98161 0.215362 10.3694 -0.0591178 10.7773 0.010908C11.1853 0.0812409 11.4595 0.469214 11.3896 0.877119L10.9199 3.60075H13.8008C14.2148 3.60096 14.5508 3.93667 14.5508 4.35075C14.5506 4.7647 14.2147 5.10054 13.8008 5.10075H10.6611L9.83398 9.90056H12.9004C13.3144 9.90077 13.6504 10.2365 13.6504 10.6506C13.6503 11.0646 13.3144 11.4003 12.9004 11.4006H9.5752L9.13965 13.9279C9.06917 14.3358 8.68137 14.6093 8.27344 14.5392C7.86537 14.4688 7.59094 14.0811 7.66113 13.673L8.05273 11.4006H5.2998L4.86426 13.9279C4.79378 14.3358 4.40598 14.6093 3.99805 14.5392C3.59019 14.4687 3.31557 14.081 3.38574 13.673L3.77734 11.4006H0.75C0.335996 11.4003 4.89188e-05 11.0646 0 10.6506C0 10.2365 0.335966 9.90077 0.75 9.90056H4.03613L4.86328 5.10075H1.65039C1.23627 5.10075 0.900546 4.76483 0.900391 4.35075C0.900391 3.93654 1.23618 3.60075 1.65039 3.60075H5.12207L5.63574 0.623213C5.70617 0.215452 6.09417 -0.0588868 6.50195 0.010908C6.90991 0.0812447 7.18419 0.46919 7.11426 0.877119L6.64453 3.60075H9.39746L9.91113 0.623213ZM5.55859 9.90056H8.31152L9.13867 5.10075H6.38574L5.55859 9.90056Z" fill="var(--fill-0, #F4DAFF)" fill-opacity="0.8"/>
</svg>
