<svg preserveAspectRatio="none" width="100%" height="100%" overflow="visible" style="display: block;" viewBox="0 0 15.2998 15.2997" fill="none" xmlns="http://www.w3.org/2000/svg">
<path id="Union" d="M0.320312 0.100526C0.519191 -0.0222521 0.767469 -0.0332167 0.976562 0.0712288L14.9268 7.04584C15.1553 7.16009 15.2996 7.39391 15.2998 7.64935C15.2998 7.90502 15.1554 8.13951 14.9268 8.25385L0.976562 15.2285C0.767484 15.3329 0.519202 15.3219 0.320312 15.1992C0.121503 15.0762 6.74583e-05 14.8587 0 14.6249V9.18353C5.80465e-05 8.57156 0.272042 8.02118 0.703125 7.64935C0.272332 7.2775 0 6.72793 0 6.11615V0.674744C6.77047e-05 0.4409 0.121399 0.223487 0.320312 0.100526ZM1.34961 6.11615C1.34961 6.48067 1.6396 6.77946 2.00391 6.79096L7.89551 6.97553C8.25972 6.98691 8.54949 7.28504 8.5498 7.64935C8.5498 8.01394 8.25991 8.31277 7.89551 8.32416L2.00391 8.50873C1.63965 8.52021 1.34971 8.8191 1.34961 9.18353V13.5322L13.1152 7.64935L1.34961 1.76654V6.11615Z" fill="var(--fill-0, #F4DAFF)" fill-opacity="0.8"/>
</svg>
