<svg preserveAspectRatio="none" width="100%" height="100%" overflow="visible" style="display: block;" viewBox="0 0 18 18" fill="none" xmlns="http://www.w3.org/2000/svg">
<path id="Union" d="M9 0C13.9706 0 18 4.02944 18 9C18 13.9706 13.9706 18 9 18C4.02944 18 0 13.9706 0 9C0 4.02944 4.02944 0 9 0ZM9 1.5C4.85786 1.5 1.5 4.85786 1.5 9C1.5 13.1421 4.85786 16.5 9 16.5C13.1421 16.5 16.5 13.1421 16.5 9C16.5 4.85786 13.1421 1.5 9 1.5ZM9 12C9.55228 12 10 12.4477 10 13C10 13.5523 9.55228 14 9 14C8.44772 14 8 13.5523 8 13C8 12.4477 8.44772 12 9 12ZM9 4.5C9.77585 4.5 10.5764 4.72668 11.1992 5.22852C11.8412 5.74586 12.25 6.52306 12.25 7.5C12.25 8.32705 11.9862 9.01495 11.4434 9.50098C10.9709 9.92386 10.3636 10.1219 9.75 10.2021V11H8.25V10C8.25 9.2913 8.81608 8.78943 9.42871 8.73145L9.61133 8.70898C10.0148 8.64916 10.2796 8.52931 10.4424 8.38379C10.6041 8.23903 10.75 7.9937 10.75 7.5C10.75 6.97707 10.5474 6.62914 10.2588 6.39648C9.95107 6.14849 9.50154 6 9 6C8.50316 6 8.12439 6.14546 7.88281 6.35156C7.65362 6.54715 7.5 6.83562 7.5 7.25C7.5 7.66421 7.16421 8 6.75 8C6.33579 8 6 7.66421 6 7.25C6 6.41439 6.33277 5.70285 6.90918 5.21094C7.47323 4.72959 8.2194 4.5 9 4.5Z" fill="var(--fill-0, white)"/>
</svg>
