<svg preserveAspectRatio="none" width="100%" height="100%" overflow="visible" style="display: block;" viewBox="0 0 16.0063 16" fill="none" xmlns="http://www.w3.org/2000/svg">
<path id="Union" d="M8.00313 0C9.2255 0 10.3598 0.438022 11.1897 1.2666C12.0223 2.09813 12.5031 3.27734 12.5031 4.67285C12.5031 6.15063 11.8957 7.43067 11.0529 8.33887C10.8953 8.50875 10.7268 8.66786 10.55 8.81445C11.1819 8.96919 11.8182 9.18451 12.425 9.47168C13.889 10.1647 15.2361 11.2993 15.8732 13.0283C16.1721 13.8395 15.9402 14.6182 15.4504 15.1602C14.9751 15.6858 14.2571 16 13.5031 16H2.50313C1.74917 15.9999 1.03105 15.6859 0.555862 15.1602C0.066213 14.6182 -0.165771 13.8393 0.133011 13.0283C0.770085 11.2994 2.11733 10.1647 3.58125 9.47168C4.18789 9.18455 4.82446 8.9692 5.45625 8.81445C5.27956 8.66791 5.11091 8.50867 4.95332 8.33887C4.11061 7.43068 3.50313 6.15052 3.50313 4.67285C3.50316 3.27745 3.98407 2.09812 4.8166 1.2666C5.64639 0.437983 6.78081 9.41608e-05 8.00313 0ZM8.00313 10C6.85591 10.0001 5.45138 10.2457 4.22285 10.8271C2.99891 11.4066 2.00308 12.2908 1.54024 13.5469C1.45735 13.7719 1.5065 13.9743 1.66914 14.1543C1.84652 14.3505 2.15287 14.4999 2.50313 14.5H13.5031C13.8534 14.5 14.1596 14.3505 14.3371 14.1543C14.4999 13.9742 14.549 13.7721 14.466 13.5469C14.0031 12.2907 13.0075 11.4065 11.7834 10.8271C10.5548 10.2457 9.15032 10 8.00313 10ZM8.00313 1.5C7.14264 1.50009 6.40134 1.80482 5.87715 2.32812C5.3558 2.84888 5.00316 3.63199 5.00313 4.67285C5.00313 5.73013 5.43767 6.65526 6.05293 7.31836C6.68202 7.9962 7.43307 8.33285 8.00313 8.33301C8.57318 8.33301 9.32412 7.99622 9.95332 7.31836C10.5687 6.65524 11.0031 5.73023 11.0031 4.67285C11.0031 3.63186 10.6506 2.84888 10.1291 2.32812C9.60485 1.80486 8.86367 1.5 8.00313 1.5Z" fill="var(--fill-0, #454447)"/>
</svg>
