<svg preserveAspectRatio="none" width="100%" height="100%" overflow="visible" style="display: block;" viewBox="0 0 13.8892 13.8891" fill="none" xmlns="http://www.w3.org/2000/svg">
<path id="Union" d="M4.5506 0.227055C5.16457 -0.234254 6.06541 0.0386254 6.32013 0.763188L6.36506 0.925297L6.81623 3.18409L8.04767 4.41553C8.81292 4.25304 9.58418 4.17632 10.3748 4.28174C11.3203 4.4079 12.2432 4.78629 13.1903 5.49659C13.3639 5.62698 13.4726 5.82686 13.4881 6.04346C13.5035 6.26015 13.4238 6.47374 13.2703 6.62745L10.4793 9.41846L13.6697 12.6089C13.9625 12.9017 13.9622 13.3765 13.6697 13.6694C13.3769 13.9623 12.9021 13.9623 12.6092 13.6694L9.41877 10.479L6.62775 13.27C6.4741 13.4237 6.26051 13.5031 6.04377 13.4878C5.82701 13.4724 5.62735 13.3637 5.49689 13.1899C4.78653 12.2428 4.40816 11.3201 4.28205 10.3745C4.17667 9.58383 4.2533 8.81267 4.41584 8.04737L3.18439 6.81592L0.925602 6.36475C0.0249556 6.18462 -0.311715 5.07283 0.337712 4.42334L4.42365 0.337407L4.5506 0.227055ZM1.86017 5.021L3.70099 5.39014L3.80744 5.41944C3.91105 5.45667 4.00629 5.51673 4.08478 5.59522L5.77033 7.28077C5.95631 7.46689 6.03119 7.73738 5.96759 7.99268C5.76484 8.80369 5.6798 9.50421 5.76935 10.1763C5.82832 10.6183 5.96785 11.0698 6.22443 11.5503L11.5506 6.22413C11.0702 5.96757 10.6185 5.82804 10.1766 5.76905C9.50455 5.67944 8.80392 5.76459 7.99299 5.96729C7.73755 6.03108 7.46731 5.95612 7.28107 5.77002L5.59552 4.08448C5.49082 3.97978 5.41948 3.84588 5.39045 3.70069L5.02131 1.85987L1.86017 5.021Z" fill="var(--fill-0, #454447)"/>
</svg>
