<svg preserveAspectRatio="none" width="100%" height="100%" overflow="visible" style="display: block;" viewBox="0 0 16.3496 16.3496" fill="none" xmlns="http://www.w3.org/2000/svg">
<path id="Union" d="M8.1748 0C12.6896 0.00010556 16.3495 3.66003 16.3496 8.1748V8.75488C16.3495 10.464 14.964 11.8496 13.2549 11.8496C12.4257 11.8495 11.6945 11.437 11.25 10.8076C10.5073 11.6743 9.40575 12.2246 8.1748 12.2246C5.93821 12.2245 4.12511 10.4114 4.125 8.1748C4.12511 5.93821 5.93821 4.12511 8.1748 4.125C9.18354 4.12505 10.1055 4.49435 10.8145 5.10449C10.8822 4.75988 11.1853 4.5 11.5498 4.5C11.964 4.5 12.2998 4.83579 12.2998 5.25V9.39453C12.2999 9.92196 12.7275 10.3495 13.2549 10.3496C14.1356 10.3496 14.8495 9.63554 14.8496 8.75488V8.1748C14.8495 4.48846 11.8612 1.50011 8.1748 1.5C4.48846 1.50011 1.50011 4.48846 1.5 8.1748C1.50011 11.8612 4.48846 14.8495 8.1748 14.8496C9.60749 14.8496 10.9328 14.399 12.0195 13.6318C12.3579 13.393 12.8265 13.4741 13.0654 13.8125C13.3039 14.1508 13.223 14.6186 12.8848 14.8574C11.5533 15.7974 9.92729 16.3496 8.1748 16.3496C3.66003 16.3495 0.000105563 12.6896 0 8.1748C0.000105657 3.66003 3.66003 0.000105654 8.1748 0ZM8.1748 5.625C6.76663 5.62511 5.62511 6.76663 5.625 8.1748C5.62511 9.58298 6.76663 10.7245 8.1748 10.7246C9.58298 10.7245 10.7245 9.58298 10.7246 8.1748C10.7245 6.76663 9.58298 5.62511 8.1748 5.625Z" fill="var(--fill-0, #454447)"/>
</svg>
