<svg preserveAspectRatio="none" width="100%" height="100%" overflow="visible" style="display: block;" viewBox="0 0 17 17" fill="none" xmlns="http://www.w3.org/2000/svg">
<path id="Union" d="M5 7C7.76142 7 10 9.23858 10 12C10 14.7614 7.76142 17 5 17C4.27839 17 3.59091 16.8466 2.96973 16.5703L0.897461 16.9854C0.651569 17.0345 0.397041 16.9576 0.219727 16.7803C0.0424138 16.603 -0.0345291 16.3484 0.0146484 16.1025L0.429688 14.0293C0.153623 13.4083 0 12.7213 0 12C0 9.23858 2.23858 7.00001 5 7ZM5 8.5C3.06701 8.50001 1.5 10.067 1.5 12C1.5 12.5743 1.63824 13.1144 1.88184 13.5908C1.95867 13.7413 1.98231 13.9134 1.94922 14.0791L1.70605 15.293L2.9209 15.0508L3.0459 15.0371C3.17121 15.0334 3.29634 15.0605 3.40918 15.1182C3.88561 15.3618 4.42569 15.5 5 15.5C6.933 15.5 8.5 13.933 8.5 12C8.5 10.067 6.933 8.5 5 8.5ZM10.75 0C14.2016 0.000228315 17 2.79836 17 6.25C17 7.17569 16.795 8.05473 16.4326 8.84668L16.9854 11.6025C17.0345 11.8483 16.9574 12.103 16.7803 12.2803C16.603 12.4574 16.3483 12.5345 16.1025 12.4854L13.3477 11.9346C13.1498 12.0251 12.9466 12.1069 12.7383 12.1768C12.3457 12.3082 11.9198 12.0967 11.7881 11.7041C11.6567 11.3117 11.8686 10.8869 12.2607 10.7549C12.4841 10.68 12.7009 10.5884 12.9082 10.4824L13.0254 10.4346C13.1449 10.3971 13.2733 10.3903 13.3975 10.415L15.293 10.7939L14.9141 8.89746C14.881 8.73189 14.9047 8.55957 14.9814 8.40918C15.3122 7.76226 15.5 7.02895 15.5 6.25C15.5 3.62679 13.3732 1.50023 10.75 1.5C8.57208 1.5002 6.73426 2.96689 6.1748 4.96777C6.06323 5.36662 5.64888 5.5998 5.25 5.48828C4.85147 5.37653 4.61809 4.96217 4.72949 4.56348C5.46545 1.93162 7.88183 0.000197139 10.75 0Z" fill="var(--fill-0, white)"/>
</svg>
