<svg preserveAspectRatio="none" width="100%" height="100%" overflow="visible" style="display: block;" viewBox="0 0 16 16.0002" fill="none" xmlns="http://www.w3.org/2000/svg">
<path id="Union" d="M10.7656 0.824327C10.8628 0.280744 11.3822 -0.0813254 11.9258 0.0157331C12.4694 0.11281 12.8314 0.632265 12.7344 1.17589L12.2305 4.00011H15C15.5522 4.00011 15.9999 4.4479 16 5.00011C16 5.55239 15.5523 6.00011 15 6.00011H11.873L11.0693 10.5001H14C14.5522 10.5001 14.9999 10.9479 15 11.5001C15 12.0524 14.5523 12.5001 14 12.5001H10.7119L10.2344 15.1759C10.1373 15.7196 9.6179 16.0816 9.07422 15.9845C8.53055 15.8874 8.16854 15.368 8.26562 14.8243L8.68066 12.5001H5.96191L5.48438 15.1759C5.38729 15.7196 4.8679 16.0816 4.32422 15.9845C3.78055 15.8874 3.41854 15.368 3.51562 14.8243L3.93066 12.5001H1C0.447715 12.5001 0 12.0524 0 11.5001C9.17307e-05 10.9479 0.447772 10.5001 1 10.5001H4.28809L5.0918 6.00011H2C1.44772 6.00011 1 5.55239 1 5.00011C1.00009 4.4479 1.44777 4.00011 2 4.00011H5.44824L6.01562 0.824327C6.11279 0.280744 6.63216 -0.0813254 7.17578 0.0157331C7.71941 0.11281 8.08136 0.632265 7.98438 1.17589L7.48047 4.00011H10.1982L10.7656 0.824327ZM6.31934 10.5001H9.03809L9.8418 6.00011H7.12305L6.31934 10.5001Z" fill="var(--fill-0, #1D1C1D)"/>
</svg>
