<svg preserveAspectRatio="none" width="100%" height="100%" overflow="visible" style="display: block;" viewBox="0 0 18 18" fill="none" xmlns="http://www.w3.org/2000/svg">
<path id="Union" d="M9 0C13.9706 0 18 4.02944 18 9C18 13.9706 13.9706 18 9 18C4.02944 18 0 13.9706 0 9C0 4.02944 4.02944 0 9 0ZM9 1.5C4.85786 1.5 1.5 4.85786 1.5 9C1.5 13.1421 4.85786 16.5 9 16.5C13.1421 16.5 16.5 13.1421 16.5 9C16.5 4.85786 13.1421 1.5 9 1.5ZM9 4C9.41421 4 9.75 4.33579 9.75 4.75V8.75H12.75C13.1642 8.75 13.5 9.08579 13.5 9.5C13.5 9.91421 13.1642 10.25 12.75 10.25H9C8.58579 10.25 8.25 9.91421 8.25 9.5V4.75C8.25 4.33579 8.58579 4 9 4Z" fill="var(--fill-0, white)"/>
</svg>
