<svg preserveAspectRatio="none" width="100%" height="100%" overflow="visible" style="display: block;" viewBox="0 0 17.9994 13.3413" fill="none" xmlns="http://www.w3.org/2000/svg">
<path id="Union" d="M12.891 3.40818C13.7695 3.08457 14.73 3.05884 15.6244 3.33493C17.0362 3.77095 17.9994 5.07611 17.9994 6.55368V12.666C17.9994 13.0387 17.6973 13.3407 17.3246 13.3408C16.9521 13.3406 16.6499 13.0386 16.6498 12.666V11.9922C15.886 12.5651 15.0144 12.983 14.0873 13.2148C13.0228 13.4807 11.8989 13.0755 11.2524 12.1865C9.76331 10.1389 11.2265 7.26687 13.7582 7.26658H16.6498V6.55368C16.6498 5.66824 16.072 4.88626 15.226 4.62497C14.6147 4.43633 13.9582 4.45365 13.3578 4.67478L13.1391 4.75486C12.5693 4.96493 12.1251 5.42284 11.933 5.999L11.8901 6.12986C11.772 6.48325 11.3891 6.67446 11.0356 6.55661C10.6826 6.43856 10.4915 6.05635 10.6088 5.7031L10.6528 5.57224C10.9745 4.60704 11.7177 3.84011 12.6723 3.48825L12.891 3.40818ZM3.68011 0.942357C4.07503 -0.304058 5.83391 -0.31756 6.24749 0.922825L10.0903 12.4521C10.208 12.8056 10.0169 13.1886 9.66351 13.3066C9.31009 13.4243 8.92806 13.2331 8.80999 12.8799L7.7641 9.74118H2.30902L1.31878 12.8701C1.20617 13.2252 0.826331 13.4218 0.471128 13.3095C0.115906 13.1969 -0.0808386 12.8172 0.0316746 12.4619L3.68011 0.942357ZM13.7582 8.61618C12.3298 8.61648 11.504 10.2372 12.3442 11.3926C12.6659 11.8348 13.2277 12.0382 13.7602 11.9052C14.5708 11.7025 15.3307 11.3262 15.9828 10.8047L16.6498 10.2705V8.61618H13.7582ZM2.73675 8.39158H7.3139L4.96624 1.34958L2.73675 8.39158Z" fill="var(--fill-0, #454447)"/>
</svg>
