<svg preserveAspectRatio="none" width="100%" height="100%" overflow="visible" style="display: block;" viewBox="0 0 17.025 17.0251" fill="none" xmlns="http://www.w3.org/2000/svg">
<path id="Union" d="M8.25 1.02507C8.66421 1.02507 9 1.36086 9 1.77507C8.99993 2.18923 8.66417 2.52507 8.25 2.52507H3.75C2.50736 2.52507 1.5 3.53243 1.5 4.77507V13.2751C1.50007 14.5177 2.5074 15.5251 3.75 15.5251H12.25C13.4926 15.5251 14.4999 14.5177 14.5 13.2751V8.77507C14.5 8.36086 14.8358 8.02507 15.25 8.02507C15.6642 8.02507 16 8.36086 16 8.77507V13.2751C15.9999 15.3461 14.321 17.0251 12.25 17.0251H3.75C1.67897 17.0251 6.68725e-05 15.3461 0 13.2751V4.77507C0 2.704 1.67893 1.02507 3.75 1.02507H8.25ZM12.7324 0.732102C13.7087 -0.244035 15.2913 -0.244033 16.2676 0.732102L16.293 0.757492C17.269 1.73378 17.2691 3.31639 16.293 4.29265L9.53027 11.0553C9.43098 11.1546 9.30574 11.2239 9.16895 11.2555L5.91895 12.0055C5.66701 12.0637 5.40257 11.9881 5.21973 11.8053C5.0369 11.6225 4.96143 11.3581 5.01953 11.1061L5.76953 7.85613L5.7998 7.75652C5.83732 7.6587 5.89511 7.56943 5.96973 7.4948L12.7324 0.732102ZM7.18164 8.403L6.75 10.2741L8.62109 9.84245L13.6885 4.77409L12.249 3.33464L7.18164 8.403ZM15.207 1.79265C14.8165 1.4023 14.1835 1.4023 13.793 1.79265L13.3096 2.27409L14.749 3.71355L15.2324 3.2321C15.6228 2.84163 15.6227 2.20853 15.2324 1.81804L15.207 1.79265Z" fill="var(--fill-0, white)"/>
</svg>
