<svg preserveAspectRatio="none" width="100%" height="100%" overflow="visible" style="display: block;" viewBox="0 0 17 17.5" fill="none" xmlns="http://www.w3.org/2000/svg">
<path id="Union" d="M8.5 0C10.7886 0 12.9052 1.01489 14.4434 2.48828C15.9761 3.95654 17 5.94548 17 7.96582V12.5H16.9951C16.9983 12.5704 17 12.641 17 12.7119V13.2881C17 15.5097 15.4182 17.5 13.25 17.5H12.75C11.6863 17.5 11 16.5428 11 15.5957V10.4043C11 9.45718 11.6863 8.5 12.75 8.5H13.25C14.1143 8.5 14.8851 8.81675 15.5 9.33789V7.96582C15.5 6.4441 14.7151 4.82517 13.4062 3.57129C12.1026 2.32248 10.344 1.5 8.5 1.5C6.65595 1.5 4.89745 2.32248 3.59375 3.57129C2.28489 4.82517 1.5 6.4441 1.5 7.96582V9.33789C2.1149 8.81675 2.88565 8.5 3.75 8.5H4.25C5.31366 8.5 6 9.45718 6 10.4043V15.5957C6 16.5428 5.31366 17.5 4.25 17.5H3.75C1.58177 17.5 0 15.5097 0 13.2881V12.7119C0 12.641 0.0016937 12.5704 0.00488281 12.5H0V7.96582C0 5.94548 1.02391 3.95654 2.55664 2.48828C4.09479 1.01489 6.21144 0 8.5 0ZM3.75 10C2.60452 10 1.5 11.11 1.5 12.7119V13.2881C1.5 14.89 2.60452 16 3.75 16H4.25C4.2812 16 4.33311 15.9873 4.39062 15.9209C4.44943 15.853 4.5 15.7399 4.5 15.5957V10.4043C4.5 10.2601 4.44943 10.147 4.39062 10.0791C4.33311 10.0127 4.2812 10 4.25 10H3.75ZM12.75 10C12.7188 10 12.6669 10.0127 12.6094 10.0791C12.5506 10.147 12.5 10.2601 12.5 10.4043V15.5957C12.5 15.7399 12.5506 15.853 12.6094 15.9209C12.6669 15.9873 12.7188 16 12.75 16H13.25C14.3955 16 15.5 14.89 15.5 13.2881V12.7119C15.5 11.11 14.3955 10 13.25 10H12.75Z" fill="var(--fill-0, #454447)"/>
</svg>
