<svg preserveAspectRatio="none" width="100%" height="100%" overflow="visible" style="display: block;" viewBox="0 0 17 15" fill="none" xmlns="http://www.w3.org/2000/svg">
<path id="Union" d="M13.25 0C15.3211 0 17 1.67893 17 3.75V11.25C17 13.3211 15.3211 15 13.25 15H3.75C1.67893 15 0 13.3211 0 11.25V3.75C0 1.67893 1.67893 0 3.75 0H13.25ZM3.75 1.5C2.50736 1.5 1.5 2.50736 1.5 3.75V11.25C1.5 12.4926 2.50736 13.5 3.75 13.5H6.75V1.5H3.75ZM8.25 1.5V13.5H13.25C14.4926 13.5 15.5 12.4926 15.5 11.25V3.75C15.5 2.50736 14.4926 1.5 13.25 1.5H8.25ZM5 9.25C5.41421 9.25 5.75 9.58579 5.75 10C5.75 10.4142 5.41421 10.75 5 10.75H3.5C3.08579 10.75 2.75 10.4142 2.75 10C2.75 9.58579 3.08579 9.25 3.5 9.25H5ZM5 6.25C5.41421 6.25 5.75 6.58579 5.75 7C5.75 7.41421 5.41421 7.75 5 7.75H3.5C3.08579 7.75 2.75 7.41421 2.75 7C2.75 6.58579 3.08579 6.25 3.5 6.25H5ZM5 3.25C5.41421 3.25 5.75 3.58579 5.75 4C5.75 4.41421 5.41421 4.75 5 4.75H3.5C3.08579 4.75 2.75 4.41421 2.75 4C2.75 3.58579 3.08579 3.25 3.5 3.25H5Z" fill="var(--fill-0, white)"/>
</svg>
