<svg preserveAspectRatio="none" width="100%" height="100%" overflow="visible" style="display: block;" viewBox="0 0 3.5 16" fill="none" xmlns="http://www.w3.org/2000/svg">
<path id="Union" d="M1.75 12.5C2.7165 12.5 3.5 13.2835 3.5 14.25C3.5 15.2165 2.7165 16 1.75 16C0.783502 16 4.04363e-08 15.2165 0 14.25C4.2247e-08 13.2835 0.783502 12.5 1.75 12.5ZM1.75 6.25C2.7165 6.25 3.5 7.0335 3.5 8C3.5 8.9665 2.7165 9.75 1.75 9.75C0.783502 9.75 4.04363e-08 8.9665 0 8C4.2247e-08 7.0335 0.783502 6.25 1.75 6.25ZM1.75 0C2.7165 4.2247e-08 3.5 0.783502 3.5 1.75C3.5 2.7165 2.7165 3.5 1.75 3.5C0.783502 3.5 -2.39903e-08 2.7165 0 1.75C4.2247e-08 0.783502 0.783502 -4.2247e-08 1.75 0Z" fill="var(--fill-0, #454447)"/>
</svg>
