<svg preserveAspectRatio="none" width="100%" height="100%" overflow="visible" style="display: block;" viewBox="0 0 204.091 251.39" fill="none" xmlns="http://www.w3.org/2000/svg">
<g id="Vector">
<path d="M117.721 120.472L102.686 125.944L102.002 124.065L117.037 118.593L117.721 120.472Z" fill="var(--fill-0, white)"/>
<path d="M175.554 95.1659C177.111 94.5993 178.832 95.402 179.399 96.959C179.965 98.5159 179.163 100.237 177.606 100.804L115.586 123.377C114.029 123.944 112.308 123.141 111.741 121.584C111.174 120.027 111.977 118.306 113.534 117.739L175.554 95.1659Z" fill="black"/>
<path d="M177.349 100.099C178.517 99.6743 179.119 98.3832 178.694 97.2155C178.269 96.0478 176.978 95.4457 175.81 95.8707L113.79 118.444C112.623 118.869 112.021 120.16 112.446 121.328C112.871 122.496 114.162 123.098 115.329 122.673L177.349 100.099ZM115.843 124.082C113.896 124.791 111.744 123.787 111.036 121.841C110.328 119.895 111.331 117.743 113.277 117.034L175.297 94.4612C177.243 93.7528 179.395 94.7563 180.104 96.7024C180.812 98.6486 179.808 100.801 177.862 101.509L115.843 124.082Z" fill="var(--fill-0, white)"/>
<path d="M103.138 124.402L101.88 125.956L89.4452 115.887L90.7038 114.332L103.138 124.402Z" fill="var(--fill-0, white)"/>
<path d="M93.5168 114.037C94.8044 115.079 95.0029 116.969 93.9602 118.256C92.9175 119.544 91.0285 119.742 89.7408 118.7L65.6493 99.1907C64.3617 98.148 64.1631 96.2589 65.2058 94.9713C66.2485 93.6837 68.1376 93.4852 69.4252 94.5278L93.5168 114.037Z" fill="black"/>
<path d="M90.2128 118.117C91.1785 118.899 92.5954 118.75 93.3774 117.784C94.1594 116.818 94.0105 115.402 93.0448 114.62L68.9532 95.1107C67.9875 94.3287 66.5707 94.4776 65.7887 95.4433C65.0067 96.409 65.1556 97.8258 66.1213 98.6079L90.2128 118.117ZM65.1773 99.7736C63.5678 98.4702 63.3196 96.1089 64.623 94.4993C65.9263 92.8898 68.2877 92.6416 69.8972 93.945L93.9888 113.454C95.5983 114.757 95.8465 117.119 94.5431 118.728C93.2397 120.338 90.8784 120.586 89.2689 119.283L65.1773 99.7736Z" fill="var(--fill-0, white)"/>
<path d="M106.318 124.64C106.318 126.849 104.527 128.64 102.318 128.64C100.109 128.64 98.3179 126.849 98.3179 124.64C98.3179 122.431 100.109 120.64 102.318 120.64C104.527 120.64 106.318 122.431 106.318 124.64Z" fill="var(--fill-0, white)"/>
<path fill-rule="evenodd" clip-rule="evenodd" d="M97.5842 112.541L137.048 205.512L136.588 205.708L97.1239 112.737L97.5842 112.541Z" fill="#CA3338"/>
<path d="M104.318 124.64C104.318 125.744 103.422 126.64 102.318 126.64C101.213 126.64 100.318 125.744 100.318 124.64C100.318 123.535 101.213 122.64 102.318 122.64C103.422 122.64 104.318 123.535 104.318 124.64Z" fill="black"/>
<path d="M103.568 124.64C103.568 123.95 103.008 123.39 102.318 123.39C101.628 123.39 101.068 123.95 101.068 124.64C101.068 125.33 101.628 125.89 102.318 125.89C103.008 125.89 103.568 125.33 103.568 124.64ZM105.068 124.64C105.068 126.159 103.837 127.39 102.318 127.39C100.799 127.39 99.5679 126.159 99.5679 124.64C99.5679 123.121 100.799 121.89 102.318 121.89C103.837 121.89 105.068 123.121 105.068 124.64Z" fill="#CA3338"/>
<path d="M14.6605 23.2786C18.5204 16.2606 34.4093 3.77288 67.3998 7.39379L67.2357 8.885C34.6264 5.30599 19.4484 17.6858 15.975 24.0012L14.6605 23.2786Z" fill="var(--fill-0, white)"/>
<path d="M16.4515 228.239C20.6369 234.838 36.5621 248.699 66.348 249.891L66.2875 251.389C37.1392 250.223 20.8407 237.084 15.7035 229.814L10.848 234.67L9.78749 233.61L15.9496 227.447L16.4515 228.239Z" fill="var(--fill-0, white)"/>
<path d="M90.318 243.39V244.89H77.0485C76.2432 245.442 75.4347 246.275 75.2037 247.124C75.0899 247.543 75.1136 247.968 75.36 248.412C75.6037 248.852 76.0973 249.362 77.0182 249.89H101.503C100.646 248.766 100.429 247.621 100.674 246.548C100.996 245.141 102.064 244.075 102.902 243.516L103.09 243.39H129.495L129.653 243.469C130.74 244.013 131.504 244.666 131.98 245.406C132.461 246.152 132.618 246.941 132.566 247.692C132.465 249.15 131.583 250.435 130.848 251.17L130.629 251.39H76.6266L76.4586 251.298C75.2833 250.657 74.489 249.936 74.0475 249.139C73.5952 248.322 73.5496 247.491 73.7565 246.731C74.1505 245.282 75.4412 244.127 76.4147 243.507L76.5993 243.39H90.318ZM103.559 244.89C102.949 245.346 102.322 246.067 102.136 246.882C101.963 247.644 102.131 248.686 103.585 249.89H129.992C130.519 249.29 131.011 248.437 131.07 247.588C131.102 247.13 131.008 246.669 130.718 246.218C130.44 245.785 129.952 245.324 129.131 244.89H103.559Z" fill="var(--fill-0, white)"/>
<path d="M0.0503778 139.849L1.55037 139.854L1.50156 154C2.10109 154.866 3.0177 155.752 3.96731 156.008C4.43981 156.136 4.9229 156.111 5.42492 155.841C5.91931 155.574 6.48407 155.038 7.0649 154.049L7.15533 127.842C5.90809 128.81 4.64494 129.048 3.47335 128.782C1.97179 128.441 0.827767 127.315 0.226581 126.424L0.0973593 126.232L0.194331 98.1259L0.276915 97.966C0.869422 96.8143 1.57707 96.0128 2.37034 95.5162C3.16991 95.0158 4.01001 94.8546 4.80897 94.9114C6.36701 95.0221 7.7455 95.9534 8.53707 96.7348L8.76189 96.9563L8.56352 154.453L8.46821 154.623C7.76929 155.869 6.98882 156.702 6.13619 157.161C5.2652 157.631 4.38297 157.675 3.57559 157.456C2.02946 157.038 0.788945 155.675 0.120449 154.638L0 154.451L0.0503778 139.849ZM1.59899 125.761C2.09542 126.422 2.89238 127.112 3.80555 127.319C4.67295 127.516 5.83442 127.32 7.16253 125.754L7.25968 97.5966C6.6032 97.0221 5.65638 96.4749 4.70322 96.4071C4.18962 96.3706 3.67057 96.4715 3.16576 96.7875C2.68174 97.0906 2.17175 97.6186 1.69305 98.5012L1.59899 125.761Z" fill="var(--fill-0, white)"/>
<path d="M196.068 161.64V200.812L201.125 205.481L202.568 165.114L204.068 165.166L202.569 207.132C202.736 209.11 202.755 212.435 202.286 216.122C201.814 219.841 200.839 223.981 198.981 227.49L197.655 226.789C199.396 223.499 200.339 219.556 200.799 215.933C201.237 212.491 201.231 209.387 201.09 207.489L194.568 201.468V161.64H196.068Z" fill="var(--fill-0, white)"/>
<path d="M198.544 94.9905C200.126 94.467 201.961 95.0103 203.875 97.1379L204.068 97.3518V122.693L204.06 122.745C203.905 123.829 203.024 125.346 201.006 126.212C201.616 126.55 202.242 127.004 202.848 127.61L203.068 127.828V128.14C203.068 131.319 203.733 146.76 204.067 154.106L204.075 154.277L204.007 154.435C203.735 155.07 203.337 155.777 202.829 156.39C202.327 156.996 201.675 157.562 200.88 157.826C200.05 158.103 199.14 158.026 198.23 157.47C197.351 156.933 196.498 155.968 195.666 154.512L195.568 154.339V136.64H197.068V153.933C197.798 155.171 198.459 155.852 199.012 156.19C199.559 156.524 200.011 156.534 200.406 156.403C200.836 156.259 201.271 155.92 201.674 155.433C202.036 154.996 202.337 154.478 202.56 153.989C202.235 146.821 201.609 132.261 201.571 128.466C200.31 127.3 199.035 126.93 198.205 126.857C197.922 126.878 197.626 126.89 197.318 126.89L197.17 125.405C197.44 125.351 197.794 125.325 198.207 125.352C201.507 125.075 202.443 123.279 202.568 122.572V97.9358C200.979 96.2614 199.795 96.1563 199.016 96.4143C198.152 96.7003 197.458 97.5293 197.068 98.3157V114.14H195.568V97.9768L195.635 97.8293C196.094 96.8207 197.067 95.4797 198.544 94.9905Z" fill="var(--fill-0, white)"/>
<path d="M196.172 25.5657C197.102 25.5503 198.114 25.8434 199.203 26.4973C199.845 26.8824 200.371 27.4931 200.808 28.2141C201.247 28.9394 201.622 29.8178 201.944 30.7922C202.588 32.7405 203.049 35.1563 203.374 37.6946C204.026 42.7761 204.152 48.466 204.068 52.1575L204.064 52.3137L203.998 52.4563C202.918 54.783 201.323 58.3461 200.05 61.4729C199.413 63.0381 198.861 64.482 198.495 65.6018C198.311 66.1633 198.179 66.6269 198.106 66.9758C198.069 67.1506 198.05 67.2809 198.043 67.3713C198.04 67.415 198.042 67.4395 198.042 67.4485C198.088 67.6051 198.111 67.7878 198.125 67.9475C198.143 68.142 198.153 68.3781 198.16 68.6457C198.173 69.1823 198.169 69.8806 198.151 70.6946C198.115 72.3243 198.024 74.4518 197.905 76.7541C197.69 80.914 197.381 85.6637 197.139 89.1252L202.568 87.5745V69.1399H204.068V88.7063L195.494 91.1555L195.57 90.0872C195.819 86.5901 196.169 81.2695 196.407 76.676C196.525 74.3788 196.615 72.269 196.651 70.6614C196.669 69.8566 196.673 69.1853 196.661 68.6829C196.654 68.4314 196.644 68.2304 196.631 68.0803C196.62 67.9494 196.608 67.8899 196.606 67.8772C196.534 67.6614 196.536 67.4355 196.547 67.2678C196.56 67.083 196.593 66.8786 196.638 66.6663C196.728 66.2405 196.878 65.7182 197.069 65.135C197.451 63.9653 198.019 62.4839 198.661 60.9075C199.919 57.8162 201.485 54.3123 202.57 51.9709C202.646 48.3263 202.517 42.8022 201.886 37.886C201.566 35.3909 201.121 33.0813 200.52 31.2629C200.22 30.3542 199.887 29.589 199.525 28.9914C199.16 28.3896 198.79 27.9983 198.432 27.7834C197.522 27.2375 196.784 27.0551 196.198 27.0647C195.618 27.0743 195.127 27.2723 194.706 27.5891C193.88 28.2117 193.336 29.2903 193.087 30.175L197.054 51.0002L196.318 51.1399L195.581 51.2805L191.581 30.2805L191.55 30.1184L191.59 29.9582C191.863 28.8677 192.553 27.3331 193.804 26.3909C194.446 25.9078 195.237 25.5812 196.172 25.5657Z" fill="var(--fill-0, white)"/>
<path d="M138.764 0.891835C145.807 0.388778 156.877 0.387135 167.524 2.46605C178.135 4.53815 188.516 8.71359 193.939 16.719L192.697 17.5608C187.62 10.0664 177.75 5.99162 167.237 3.93871C156.759 1.89269 145.829 1.89101 138.871 2.38793L138.764 0.891835Z" fill="var(--fill-0, white)"/>
<path d="M186.928 225.704C187.756 226.863 190.116 230.088 192.91 233.679L193.281 234.156L192.894 234.62C188.807 239.524 183.046 243.115 180.654 244.311L180.318 243.64L179.983 242.969C182.183 241.869 187.466 238.58 191.351 234.116C189.274 231.434 187.471 229.001 186.405 227.538C183.596 232.272 176.501 239.587 165.796 238.586C166.771 240.16 167.507 241.426 168.025 242.365C168.354 242.962 168.597 243.431 168.76 243.766C168.841 243.932 168.907 244.072 168.953 244.181C168.975 244.234 168.996 244.29 169.014 244.342C169.016 244.347 169.022 244.369 169.031 244.401C169.082 244.528 169.139 244.655 169.201 244.793C169.266 244.941 169.338 245.104 169.401 245.268C169.522 245.583 169.647 245.996 169.593 246.441C169.47 247.459 168.543 248.043 167.157 248.455C165.702 248.888 163.354 249.248 159.661 249.552C155.954 249.857 150.844 250.109 143.839 250.309H143.818C141.351 250.309 139.5 249.764 138.324 248.815C137.109 247.835 136.674 246.463 137.031 245.08C137.376 243.744 138.431 242.494 139.987 241.558C141.553 240.615 143.676 239.955 146.276 239.81C150.051 239.599 152.291 239.66 153.682 239.756C154.373 239.804 154.858 239.861 155.179 239.892C155.345 239.908 155.454 239.916 155.536 239.917C155.611 239.918 155.636 239.912 155.636 239.912L155.999 241.367C155.686 241.446 155.346 241.415 155.035 241.385C154.684 241.351 154.242 241.299 153.578 241.253C152.261 241.162 150.084 241.1 146.36 241.308C143.961 241.442 142.084 242.046 140.76 242.843C139.426 243.646 138.701 244.612 138.483 245.455C138.277 246.253 138.497 247.027 139.266 247.648C140.072 248.297 141.528 248.806 143.802 248.808C150.794 248.608 155.871 248.359 159.537 248.057C163.219 247.754 165.434 247.403 166.729 247.018C168.092 246.613 168.103 246.273 168.105 246.26C168.113 246.189 168.098 246.059 168 245.805C167.954 245.683 167.897 245.554 167.829 245.403C167.765 245.257 167.69 245.09 167.621 244.918L167.568 244.784V244.757C167.537 244.684 167.486 244.573 167.412 244.423C167.263 244.117 167.032 243.671 166.711 243.089C166.07 241.926 165.078 240.231 163.685 238.042L162.782 236.623L164.441 236.9C175.971 238.821 183.382 230.334 185.647 225.805L186.204 224.691L186.928 225.704Z" fill="var(--fill-0, white)"/>
<path d="M7.06776 186.736V165.407C6.49418 164.726 5.95539 164.383 5.4828 164.235C4.97288 164.075 4.46798 164.117 3.96913 164.304C3.00275 164.667 2.12479 165.557 1.57166 166.363C1.72974 173.787 1.56782 188.409 1.56776 189.64C1.56781 189.708 1.58263 189.783 1.71913 189.906C1.88103 190.053 2.16289 190.218 2.61854 190.41C2.86436 190.514 3.14164 190.616 3.45057 190.726C4.49512 189.654 5.63981 188.58 6.63905 187.683C6.91417 187.436 7.06776 187.093 7.06776 186.736ZM1.56776 195.64C1.5678 196.332 1.69202 203.43 2.37635 210.346C2.71908 213.81 3.19891 217.191 3.86268 219.693C4.19616 220.949 4.56355 221.934 4.95448 222.588C5.3661 223.277 5.67145 223.39 5.81776 223.39C8.85878 223.39 10.1745 221.846 10.5355 221.073C9.78996 217.697 8.79143 212.701 8.01405 207.8C7.22269 202.811 6.64683 197.844 6.82752 194.796C6.87232 194.039 6.49273 193.395 5.95252 193.192C5.20402 192.91 4.50896 192.674 3.87245 192.458C3.75829 192.581 3.64571 192.702 3.53651 192.822C2.92352 193.5 2.40917 194.127 2.05311 194.656C1.87511 194.921 1.7471 195.146 1.66541 195.329C1.57938 195.522 1.56776 195.619 1.56776 195.64ZM8.56776 186.736C8.56776 187.531 8.22416 188.276 7.641 188.799C6.81496 189.541 5.89541 190.398 5.02381 191.268C5.47926 191.424 5.96867 191.595 6.48182 191.788C7.79749 192.284 8.39709 193.662 8.32459 194.885C8.15482 197.748 8.70234 202.565 9.49549 207.565C10.2849 212.541 11.305 217.623 12.0502 220.977L12.0951 221.18L12.0297 221.376C11.5909 222.693 9.72973 224.89 5.81776 224.89C4.8391 224.89 4.14435 224.156 3.66737 223.358C3.16964 222.525 2.75966 221.382 2.41346 220.077C1.71792 217.456 1.22892 213.978 0.884165 210.493C0.193781 203.516 0.0677992 196.367 0.0677585 195.64C0.067761 195.316 0.170818 194.997 0.295298 194.718C0.424094 194.429 0.602486 194.126 0.808969 193.82C1.20329 193.234 1.73879 192.581 2.33827 191.913C2.2345 191.873 2.13354 191.833 2.03651 191.792C1.53901 191.583 1.06591 191.339 0.711313 191.017C0.331701 190.672 0.0678619 190.217 0.0677585 189.64C0.0678228 188.354 0.234206 173.479 0.0677585 166.156L0.0628757 165.929L0.184946 165.737C0.811185 164.753 1.97283 163.451 3.44178 162.9C4.19696 162.616 5.04842 162.527 5.93104 162.804C6.80827 163.079 7.64144 163.691 8.40956 164.679L8.56776 164.882V186.736Z" fill="var(--fill-0, white)"/>
<path d="M7.40614 25.1047C6.73792 25.9512 6.11263 27.2756 5.54579 29.0412C4.98262 30.7955 4.49315 32.9331 4.07215 35.3645C3.23023 40.227 2.66972 46.2074 2.31629 52.5315C1.60961 65.1769 1.73452 79.1283 2.06727 88.1125L0.568247 88.1672C0.234344 79.1515 0.109276 65.1527 0.819224 52.4485C1.17413 46.0977 1.73863 40.0523 2.59461 35.1086C3.02253 32.6372 3.52538 30.4265 4.11708 28.5832C4.70512 26.7515 5.39768 25.2285 6.22938 24.175L7.40614 25.1047Z" fill="var(--fill-0, white)"/>
<path d="M11.4078 32.012C12.4376 31.3398 13.4211 31.0681 14.3336 31.1828C15.2481 31.2979 15.9767 31.7869 16.5221 32.4123C17.5843 33.6305 18.0679 35.4866 18.068 36.8733V36.9397L18.0563 37.0051L16.067 48.2073L15.7526 89.7825L15.7496 90.0471L15.5827 90.2512C14.8957 91.092 13.5481 92.1762 12.0553 92.4387C11.2818 92.5747 10.4443 92.4917 9.66859 92.01C8.9017 91.5337 8.27811 90.7188 7.81996 89.5461C7.50212 88.7325 7.2655 87.27 7.08265 85.427C6.8966 83.5516 6.75892 81.1905 6.67152 78.5188C6.49669 73.174 6.521 66.5513 6.76722 60.008C7.01335 53.4674 7.48142 46.987 8.19593 41.9328C8.55281 39.4085 8.97445 37.2159 9.46839 35.5422C9.71512 34.7062 9.98644 33.9777 10.2877 33.3938C10.581 32.8255 10.9422 32.3159 11.4078 32.012ZM14.1461 32.6711C13.6803 32.6126 13.0503 32.7313 12.2282 33.2678C12.0853 33.3611 11.8705 33.5982 11.6207 34.0823C11.3791 34.5507 11.139 35.1806 10.9069 35.967C10.443 37.5389 10.0339 39.6489 9.68128 42.1428C8.97694 47.125 8.51145 53.5479 8.26624 60.0637C8.02115 66.577 7.997 73.1647 8.17054 78.47C8.25734 81.1233 8.39324 83.4481 8.57484 85.2786C8.75963 87.1412 8.98417 88.4056 9.21644 89.0002C9.59557 89.9707 10.047 90.4792 10.4596 90.7356C10.8637 90.9865 11.3118 91.0462 11.7955 90.9612C12.7228 90.7981 13.6762 90.1144 14.2545 89.4885L14.568 48.134V48.0715L14.5797 48.009L16.566 36.8157C16.5522 35.6914 16.1407 34.2562 15.3922 33.3977C15.0258 32.9775 14.6101 32.7295 14.1461 32.6711Z" fill="var(--fill-0, white)"/>
<path d="M9.72694 17.6789C15.2321 10.6255 33.957 -2.42767 65.3851 0.392812L65.2504 1.88695C34.2788 -0.892434 16.0701 11.9886 10.9086 18.6018L10.3178 18.1399L9.72694 17.6789Z" fill="var(--fill-0, white)"/>
<path d="M76.5453 14.4582L75.0902 14.8215L71.5902 0.821522L73.0453 0.458241L76.5453 14.4582Z" fill="var(--fill-0, white)"/>
<path d="M131.95 0.389881L132.074 0.434803C133.069 0.796917 134.455 1.65383 134.787 3.12523C135.135 4.67272 134.226 6.39607 131.768 8.23949L131.568 8.38988H83.9877C83.4927 8.62043 82.9678 8.92874 82.5248 9.29613C82.0343 9.70292 81.6955 10.1348 81.5531 10.553C81.424 10.932 81.4346 11.3551 81.7592 11.8625C82.0916 12.3823 82.7685 13.0045 84.0101 13.6828C91.1094 13.6793 117.76 13.487 130.312 13.3899L130.324 14.8899C117.659 14.9879 90.6215 15.1838 83.8178 15.1838H83.6312L83.4672 15.0969C82.0113 14.3262 81.0387 13.5195 80.4955 12.6702C79.9305 11.7867 79.8539 10.8897 80.1332 10.0696C80.3991 9.28868 80.9636 8.64214 81.5668 8.14183C82.1773 7.63548 82.8817 7.23276 83.515 6.95336L83.6596 6.88988H131.061C133.223 5.21437 133.463 4.07206 133.324 3.45433C133.17 2.77411 132.464 2.20505 131.671 1.88988H79.3178V0.389881H131.95Z" fill="var(--fill-0, white)"/>
</g>
</svg>
