<svg preserveAspectRatio="none" width="100%" height="100%" overflow="visible" style="display: block;" viewBox="0 0 16.9998 17" fill="none" xmlns="http://www.w3.org/2000/svg">
<path id="Union" d="M8.50103 0C9.18949 0 9.81126 0.246105 10.2676 0.761719C10.5987 1.13598 10.8064 1.61195 10.918 2.14551C12.1272 2.5142 13.0221 3.28157 13.6045 4.50195C14.2085 5.76767 14.4594 7.48961 14.4942 9.68359L16.3633 11.5615L16.376 11.5732L16.3868 11.5859C17.0226 12.2854 17.193 13.1762 16.7598 13.9277C16.3535 14.6325 15.5359 15 14.6553 15H11.2715C11.1437 15.3898 10.9358 15.7751 10.6338 16.1045C10.1412 16.6418 9.42624 17 8.5147 17C7.5968 17 6.87585 16.6444 6.37798 16.1074C6.07202 15.7774 5.86189 15.3911 5.73248 15H2.3438C1.46342 14.9999 0.646567 14.6324 0.240289 13.9277C-0.192922 13.1762 -0.0234252 12.2854 0.61236 11.5859L0.624078 11.5732L0.636774 11.5605L2.50689 9.68359C2.54267 7.48955 2.79481 5.76761 3.39849 4.50195C3.9805 3.28189 4.87429 2.51435 6.08306 2.14551C6.19466 1.61188 6.4033 1.13603 6.73443 0.761719C7.1908 0.246104 7.81257 1.07955e-06 8.50103 0ZM8.50103 1.5C8.18976 1.5 7.99621 1.59908 7.85748 1.75586C7.70089 1.93286 7.549 2.26025 7.4981 2.81836L7.44732 3.37598L6.89849 3.48535C5.87461 3.69013 5.20721 4.19542 4.75298 5.14746C4.26811 6.16392 4.01701 7.71404 4.00103 10.0049L3.99908 10.3125L3.78228 10.5293L1.71392 12.6035C1.56709 12.7678 1.51921 12.8994 1.50591 12.9805C1.49316 13.0585 1.50708 13.1214 1.54009 13.1787C1.60916 13.2983 1.84445 13.4999 2.3438 13.5H7.00884L7.07818 14.1719C7.11222 14.4987 7.24874 14.84 7.47857 15.0879C7.69317 15.3192 8.01543 15.5 8.5147 15.5C9.00119 15.5 9.31666 15.3218 9.52838 15.0908C9.75547 14.8431 9.89029 14.5017 9.92388 14.1738L9.99322 13.5H14.6553C15.1551 13.5 15.391 13.2983 15.46 13.1787C15.493 13.1215 15.5069 13.0585 15.4942 12.9805C15.4807 12.8985 15.431 12.7655 15.2803 12.5986L13.2198 10.5293L13.003 10.3115L13.001 10.0049C12.9862 7.71406 12.7351 6.16382 12.2501 5.14746C11.7956 4.1955 11.1276 3.69015 10.1036 3.48535L9.55474 3.37598L9.50396 2.81836C9.45306 2.26025 9.30117 1.93286 9.14459 1.75586C9.00585 1.59908 8.81231 1.5 8.50103 1.5Z" fill="var(--fill-0, white)"/>
</svg>
