<svg preserveAspectRatio="none" width="100%" height="100%" overflow="visible" style="display: block;" viewBox="0 0 12.0322 62.2536" fill="none" xmlns="http://www.w3.org/2000/svg">
<path id="Vector 36" d="M0.75498 3.50356C1.92165 1.67022 4.95498 -1.09644 7.75498 2.50356C7.75498 7.42739 7.75498 18.4182 7.75498 24.0997C7.75498 24.6764 7.50604 25.2194 7.07687 25.6047C4.4143 27.9948 0.755054 31.6251 0.755044 33.0036C0.755033 34.4178 1.25504 61.5036 5.75504 61.5036C9.35504 61.5036 10.9217 59.5036 11.255 58.5036C9.75928 51.7728 7.1628 38.1157 7.51329 32.2048C7.57199 31.2148 7.08235 30.2039 6.15425 29.8542C2.98081 28.6588 0.754916 28.2956 0.75498 27.0036C0.755043 25.7386 0.921668 10.8369 0.75498 3.50356Z" stroke="var(--stroke-0, white)" stroke-width="1.5"/>
</svg>
