<svg preserveAspectRatio="none" width="100%" height="100%" overflow="visible" style="display: block;" viewBox="0 0 11.8496 14.5508" fill="none" xmlns="http://www.w3.org/2000/svg">
<path id="Union" d="M11.0996 4.9502C11.5137 4.9503 11.8495 5.28614 11.8496 5.7002V5.9248C11.8496 8.94289 9.59276 11.4328 6.6748 11.8018V13.0508H7.9502C8.36423 13.051 8.7002 13.3867 8.7002 13.8008C8.69998 14.2147 8.3641 14.5506 7.9502 14.5508H3.90039C3.48631 14.5508 3.1506 14.2148 3.15039 13.8008C3.15039 13.3866 3.48618 13.0508 3.90039 13.0508H5.1748V11.8018C2.25673 11.4329 0 8.94296 0 5.9248V5.7002C0.000105665 5.28607 0.335852 4.9502 0.75 4.9502C1.16406 4.9503 1.49989 5.28614 1.5 5.7002V5.9248C1.5 8.3686 3.48103 10.3505 5.9248 10.3506C8.36858 10.3505 10.3496 8.3686 10.3496 5.9248V5.7002C10.3497 5.2862 10.6856 4.95041 11.0996 4.9502ZM5.9248 0C7.70548 0.000210984 9.14997 1.44398 9.15039 3.22461V5.9248C9.15039 7.70579 7.70574 9.15018 5.9248 9.15039C4.14387 9.15018 2.7002 7.70579 2.7002 5.9248V3.22461C2.70062 1.44398 4.14413 0.000211009 5.9248 0ZM5.9248 1.5C4.97256 1.50021 4.20062 2.27241 4.2002 3.22461V5.9248C4.2002 6.87737 4.97229 7.65018 5.9248 7.65039C6.87732 7.65018 7.65039 6.87737 7.65039 5.9248V3.22461C7.64997 2.27241 6.87706 1.50021 5.9248 1.5Z" fill="var(--fill-0, #454447)"/>
</svg>
