<svg preserveAspectRatio="none" width="100%" height="100%" overflow="visible" style="display: block;" viewBox="0 0 16.3496 16.3496" fill="none" xmlns="http://www.w3.org/2000/svg">
<path id="Union" d="M8.1748 0C12.6896 0.00010556 16.3495 3.66003 16.3496 8.1748C16.3495 12.6896 12.6896 16.3495 8.1748 16.3496C3.66003 16.3495 0.000105563 12.6896 0 8.1748C0.000105657 3.66003 3.66003 0.000105654 8.1748 0ZM8.1748 1.5C4.48846 1.50011 1.50011 4.48846 1.5 8.1748C1.50011 11.8612 4.48846 14.8495 8.1748 14.8496C11.8612 14.8495 14.8495 11.8612 14.8496 8.1748C14.8495 4.48846 11.8612 1.50011 8.1748 1.5ZM10.2988 9.74023C10.4283 9.34693 10.8527 9.13241 11.2461 9.26172C11.6395 9.39112 11.8538 9.8156 11.7246 10.209C11.1671 11.9038 9.66649 12.75 8.19922 12.75C6.73194 12.75 5.23133 11.9038 4.67383 10.209C4.54459 9.81559 4.75897 9.39112 5.15234 9.26172C5.5457 9.13244 5.97013 9.34694 6.09961 9.74023C6.4303 10.7454 7.29811 11.25 8.19922 11.25C9.10031 11.25 9.96814 10.7454 10.2988 9.74023ZM5.9248 5.02441C6.67039 5.02441 7.27441 5.62942 7.27441 6.375C7.27431 7.12049 6.67032 7.72461 5.9248 7.72461C5.17929 7.72461 4.5753 7.12049 4.5752 6.375C4.5752 5.62942 5.17922 5.02441 5.9248 5.02441ZM10.4248 5.02441C11.1704 5.02441 11.7744 5.62942 11.7744 6.375C11.7743 7.12049 11.1703 7.72461 10.4248 7.72461C9.67929 7.72461 9.0753 7.12049 9.0752 6.375C9.0752 5.62942 9.67922 5.02441 10.4248 5.02441Z" fill="var(--fill-0, #454447)"/>
</svg>
