<svg preserveAspectRatio="none" width="100%" height="100%" overflow="visible" style="display: block;" viewBox="0 0 15.2998 15.2998" fill="none" xmlns="http://www.w3.org/2000/svg">
<path id="Union" d="M12.5996 0C14.0908 0 15.2998 1.20903 15.2998 2.7002V12.5996C15.2998 14.0908 14.0908 15.2998 12.5996 15.2998H2.7002L2.42383 15.2861C1.06239 15.1478 0 13.9975 0 12.5996V2.7002C0 1.30225 1.06238 0.151978 2.42383 0.0136719L2.7002 0H12.5996ZM2.7002 1.34961C1.95461 1.34961 1.34961 1.95461 1.34961 2.7002V12.5996C1.34961 13.3452 1.95461 13.9502 2.7002 13.9502H12.5996C13.3452 13.9502 13.9502 13.3452 13.9502 12.5996V2.7002C13.9502 1.95461 13.3452 1.34961 12.5996 1.34961H2.7002ZM9.32422 3.24805C9.51865 2.93044 9.93406 2.82946 10.252 3.02344C10.5697 3.21768 10.6702 3.63322 10.4766 3.95117L5.52637 12.0518C5.33198 12.3697 4.91667 12.4696 4.59863 12.2754C4.2806 12.081 4.17979 11.6657 4.37402 11.3477L9.32422 3.24805Z" fill="var(--fill-0, #454447)"/>
</svg>
