<svg preserveAspectRatio="none" width="100%" height="100%" overflow="visible" style="display: block;" viewBox="0 0 12.2998 12.2998" fill="none" xmlns="http://www.w3.org/2000/svg">
<path id="Union" d="M6.15039 0C6.56447 0 6.90018 0.335966 6.90039 0.75V5.40039H11.5498C11.964 5.40039 12.2998 5.73618 12.2998 6.15039C12.2998 6.5646 11.964 6.90039 11.5498 6.90039H6.90039V11.5498C6.90039 11.964 6.5646 12.2998 6.15039 12.2998C5.73618 12.2998 5.40039 11.964 5.40039 11.5498V6.90039H0.75C0.335966 6.90018 0 6.56447 0 6.15039C0 5.73631 0.335966 5.4006 0.75 5.40039H5.40039V0.75C5.4006 0.335966 5.73631 0 6.15039 0Z" fill="var(--fill-0, #454447)"/>
</svg>
